<svg xmlns="http://www.w3.org/2000/svg" xmlns:xlink="http://www.w3.org/1999/xlink" width="500" zoomAndPan="magnify" viewBox="0 0 375 374.999991" height="500" preserveAspectRatio="xMidYMid meet" version="1.0"><defs><clipPath id="2f614174f5"><path d="M 220 240 L 258 240 L 258 277 L 220 277 Z M 220 240 " clip-rule="nonzero"/></clipPath><clipPath id="ab9ba54c40"><path d="M 214.515625 249.292969 L 248.457031 234.269531 L 263.078125 267.308594 L 229.136719 282.332031 Z M 214.515625 249.292969 " clip-rule="nonzero"/></clipPath><clipPath id="c8cba247fd"><path d="M 231.476562 241.785156 C 222.109375 245.933594 217.789062 256.691406 221.824219 265.8125 C 225.863281 274.9375 236.734375 278.972656 246.101562 274.824219 C 255.472656 270.675781 259.792969 259.917969 255.753906 250.796875 C 251.714844 241.671875 240.847656 237.640625 231.476562 241.785156 Z M 231.476562 241.785156 " clip-rule="nonzero"/></clipPath><clipPath id="838cae49fa"><path d="M 220 240 L 258 240 L 258 277 L 220 277 Z M 220 240 " clip-rule="nonzero"/></clipPath><clipPath id="0b22a9dd3e"><path d="M 214.515625 249.292969 L 248.117188 234.417969 L 262.691406 267.339844 L 229.085938 282.214844 Z M 214.515625 249.292969 " clip-rule="nonzero"/></clipPath><clipPath id="4549c3fe2b"><path d="M 214.515625 249.292969 L 248.582031 234.214844 L 263.207031 267.25 L 229.136719 282.332031 Z M 214.515625 249.292969 " clip-rule="nonzero"/></clipPath><clipPath id="ce529c7a78"><path d="M 231.476562 241.785156 C 222.109375 245.933594 217.789062 256.691406 221.824219 265.8125 C 225.863281 274.9375 236.730469 278.96875 246.101562 274.824219 C 255.46875 270.675781 259.789062 259.917969 255.75 250.796875 C 251.714844 241.671875 240.84375 237.640625 231.476562 241.785156 Z M 231.476562 241.785156 " clip-rule="nonzero"/></clipPath><clipPath id="d3fc020d97"><path d="M 124 265 L 162 265 L 162 302 L 124 302 Z M 124 265 " clip-rule="nonzero"/></clipPath><clipPath id="6f395de40e"><path d="M 119.066406 274.65625 L 153.011719 259.632812 L 167.632812 292.671875 L 133.691406 307.695312 Z M 119.066406 274.65625 " clip-rule="nonzero"/></clipPath><clipPath id="8f0a0519aa"><path d="M 136.03125 267.148438 C 126.664062 271.296875 122.339844 282.054688 126.378906 291.175781 C 130.417969 300.300781 141.289062 304.332031 150.65625 300.1875 C 160.023438 296.039062 164.347656 285.28125 160.308594 276.15625 C 156.269531 267.035156 145.402344 263 136.03125 267.148438 Z M 136.03125 267.148438 " clip-rule="nonzero"/></clipPath><clipPath id="04db85d02b"><path d="M 124 265 L 162 265 L 162 302 L 124 302 Z M 124 265 " clip-rule="nonzero"/></clipPath><clipPath id="5e01208b59"><path d="M 119.066406 274.65625 L 152.671875 259.78125 L 167.246094 292.703125 L 133.640625 307.574219 Z M 119.066406 274.65625 " clip-rule="nonzero"/></clipPath><clipPath id="4d2b3d5b2b"><path d="M 119.066406 274.65625 L 153.136719 259.578125 L 167.761719 292.613281 L 133.691406 307.695312 Z M 119.066406 274.65625 " clip-rule="nonzero"/></clipPath><clipPath id="f4f99c001c"><path d="M 136.03125 267.148438 C 126.664062 271.296875 122.339844 282.050781 126.378906 291.175781 C 130.417969 300.296875 141.285156 304.332031 150.65625 300.183594 C 160.023438 296.039062 164.34375 285.28125 160.304688 276.160156 C 156.269531 267.035156 145.398438 263 136.03125 267.148438 Z M 136.03125 267.148438 " clip-rule="nonzero"/></clipPath><clipPath id="071dfcfd49"><path d="M 139.601562 276.90625 L 153.125 276.90625 L 153.125 290.429688 L 139.601562 290.429688 Z M 139.601562 276.90625 " clip-rule="nonzero"/></clipPath><clipPath id="863f67f25b"><path d="M 146.363281 276.90625 C 142.628906 276.90625 139.601562 279.933594 139.601562 283.667969 C 139.601562 287.402344 142.628906 290.429688 146.363281 290.429688 C 150.097656 290.429688 153.125 287.402344 153.125 283.667969 C 153.125 279.933594 150.097656 276.90625 146.363281 276.90625 Z M 146.363281 276.90625 " clip-rule="nonzero"/></clipPath><clipPath id="fe49a205d6"><path d="M 139.601562 276.90625 L 153.101562 276.90625 L 153.101562 290.40625 L 139.601562 290.40625 Z M 139.601562 276.90625 " clip-rule="nonzero"/></clipPath><clipPath id="ba53b8e41d"><path d="M 146.363281 276.90625 C 142.628906 276.90625 139.601562 279.933594 139.601562 283.667969 C 139.601562 287.402344 142.628906 290.429688 146.363281 290.429688 C 150.097656 290.429688 153.125 287.402344 153.125 283.667969 C 153.125 279.933594 150.097656 276.90625 146.363281 276.90625 Z M 146.363281 276.90625 " clip-rule="nonzero"/></clipPath><clipPath id="152cf672d5"><path d="M 235.550781 251.542969 L 249.074219 251.542969 L 249.074219 265.070312 L 235.550781 265.070312 Z M 235.550781 251.542969 " clip-rule="nonzero"/></clipPath><clipPath id="315032a62d"><path d="M 242.3125 251.542969 C 238.578125 251.542969 235.550781 254.570312 235.550781 258.304688 C 235.550781 262.039062 238.578125 265.070312 242.3125 265.070312 C 246.046875 265.070312 249.074219 262.039062 249.074219 258.304688 C 249.074219 254.570312 246.046875 251.542969 242.3125 251.542969 Z M 242.3125 251.542969 " clip-rule="nonzero"/></clipPath><clipPath id="c3ee13da92"><path d="M 235.550781 251.542969 L 249.050781 251.542969 L 249.050781 265.042969 L 235.550781 265.042969 Z M 235.550781 251.542969 " clip-rule="nonzero"/></clipPath><clipPath id="37d69e6f9b"><path d="M 242.3125 251.542969 C 238.578125 251.542969 235.550781 254.570312 235.550781 258.304688 C 235.550781 262.039062 238.578125 265.066406 242.3125 265.066406 C 246.046875 265.066406 249.074219 262.039062 249.074219 258.304688 C 249.074219 254.570312 246.046875 251.542969 242.3125 251.542969 Z M 242.3125 251.542969 " clip-rule="nonzero"/></clipPath></defs><path stroke-linecap="round" transform="matrix(0.603747, -0.44496, 0.44496, 0.603747, 245.414578, 144.170206)" fill="none" stroke-linejoin="miter" d="M 1.00236 1.000301 L 159.11728 0.999205 " stroke="#737373" stroke-width="2" stroke-opacity="1" stroke-miterlimit="4"/><path stroke-linecap="round" transform="matrix(0.605859, -0.442081, 0.442081, 0.605859, 209.930292, 102.891569)" fill="none" stroke-linejoin="miter" d="M 0.998721 0.997978 L 145.516439 1.000883 " stroke="#545454" stroke-width="2" stroke-opacity="1" stroke-miterlimit="4"/><path stroke-linecap="round" transform="matrix(-0.589926, -0.463128, 0.463128, -0.589926, 342.034698, 74.311087)" fill="none" stroke-linejoin="miter" d="M 2.001372 2.002067 L 72.280924 1.999446 " stroke="#737373" stroke-width="4" stroke-opacity="1" stroke-miterlimit="4"/><path stroke-linecap="butt" transform="matrix(0.746475, 0.0726324, -0.0726324, 0.746475, 88.492331, 172.633964)" fill="none" stroke-linejoin="miter" d="M -0.000726052 1.500379 L 172.633676 1.500653 " stroke="#ffde59" stroke-width="3" stroke-opacity="1" stroke-miterlimit="4"/><path stroke-linecap="butt" transform="matrix(0.550447, -0.50942, 0.50942, 0.550447, 118.302676, 207.304556)" fill="none" stroke-linejoin="miter" d="M 0.000804183 1.498347 L 123.697239 1.501428 " stroke="#ffde59" stroke-width="3" stroke-opacity="1" stroke-miterlimit="4"/><path stroke-linecap="round" transform="matrix(0.730563, -0.169641, 0.169641, 0.730563, 111.063432, 209.218258)" fill="none" stroke-linejoin="miter" d="M 1.002123 0.99798 L 212.418275 1.000264 " stroke="#000000" stroke-width="2" stroke-opacity="1" stroke-miterlimit="4"/><path stroke-linecap="round" transform="matrix(0.727866, -0.180861, 0.180861, 0.727866, 47.839974, 113.870054)" fill="none" stroke-linejoin="miter" d="M 1.001388 1.001594 L 198.524126 0.998297 " stroke="#000000" stroke-width="2" stroke-opacity="1" stroke-miterlimit="4"/><path stroke-linecap="round" transform="matrix(0.459793, 0.592529, -0.592529, 0.459793, 193.840801, 78.053844)" fill="none" stroke-linejoin="miter" d="M 0.998421 1.00052 L 159.720907 0.998885 " stroke="#000000" stroke-width="2" stroke-opacity="1" stroke-miterlimit="4"/><path stroke-linecap="round" transform="matrix(-0.109497, 0.741964, -0.741964, -0.109497, 267.883434, 173.860537)" fill="none" stroke-linejoin="miter" d="M 0.999064 1.001113 L 74.810758 1.00097 " stroke="#000000" stroke-width="2" stroke-opacity="1" stroke-miterlimit="4"/><path stroke-linecap="round" transform="matrix(0.722832, -0.200033, 0.200033, 0.722832, 97.7444, 273.799259)" fill="none" stroke-linejoin="miter" d="M 1.001524 0.998007 L 221.600968 1.001134 " stroke="#000000" stroke-width="2" stroke-opacity="1" stroke-miterlimit="4"/><path stroke-linecap="round" transform="matrix(0.721461, -0.204923, 0.204923, 0.721461, 37.836766, 186.05574)" fill="none" stroke-linejoin="miter" d="M 0.997457 1.001968 L 206.43545 0.998403 " stroke="#000000" stroke-width="2" stroke-opacity="1" stroke-miterlimit="4"/><path stroke-linecap="round" transform="matrix(-0.10744, 0.742264, -0.742264, -0.10744, 48.762445, 114.706927)" fill="none" stroke-linejoin="miter" d="M 0.997231 0.99862 L 96.924546 1.001502 " stroke="#000000" stroke-width="2" stroke-opacity="1" stroke-miterlimit="4"/><path stroke-linecap="round" transform="matrix(-0.0602493, 0.747576, -0.747576, -0.0602493, 193.991725, 78.577041)" fill="none" stroke-linejoin="miter" d="M 1.001703 1.000272 L 87.730054 1.001931 " stroke="#000000" stroke-width="2" stroke-opacity="1" stroke-miterlimit="4"/><path stroke-linecap="round" transform="matrix(-0.151177, 0.734606, -0.734606, -0.151177, 111.962889, 210.104957)" fill="none" stroke-linejoin="miter" d="M 0.998569 0.998908 L 86.902866 1.001012 " stroke="#000000" stroke-width="2" stroke-opacity="1" stroke-miterlimit="4"/><path stroke-linecap="round" transform="matrix(0.414412, 0.62511, -0.62511, 0.414412, 48.645469, 114.185493)" fill="none" stroke-linejoin="miter" d="M 1.000852 1.002449 L 151.531683 1.000843 " stroke="#000000" stroke-width="2" stroke-opacity="1" stroke-miterlimit="4"/><path stroke-linecap="round" transform="matrix(0.427139, 0.616484, -0.616484, 0.427139, 38.114856, 186.860042)" fill="none" stroke-linejoin="miter" d="M 0.998757 0.998701 L 140.510889 1.000751 " stroke="#000000" stroke-width="2" stroke-opacity="1" stroke-miterlimit="4"/><path stroke-linecap="round" transform="matrix(-0.482814, -0.573925, 0.573925, -0.482814, 258.272479, 230.477884)" fill="none" stroke-linejoin="miter" d="M 0.999519 0.999058 L 147.488637 0.999923 " stroke="#545454" stroke-width="2" stroke-opacity="1" stroke-miterlimit="4"/><path stroke-linecap="round" transform="matrix(-0.521985, 0.538546, -0.538546, -0.521985, 217.783365, 186.815803)" fill="none" stroke-linejoin="miter" d="M 0.999848 1.000479 L 140.582092 0.999573 " stroke="#545454" stroke-width="2" stroke-opacity="1" stroke-miterlimit="4"/><path stroke-linecap="round" transform="matrix(-0.630369, -0.406367, 0.406367, -0.630369, 177.989158, 252.88932)" fill="none" stroke-linejoin="miter" d="M 1.000211 1.001484 L 104.702464 1.000604 " stroke="#545454" stroke-width="2" stroke-opacity="1" stroke-miterlimit="4"/><path stroke-linecap="round" transform="matrix(-0.523871, 0.536711, -0.536711, -0.523871, 172.922206, 198.801666)" fill="none" stroke-linejoin="miter" d="M 1.000269 0.996649 L 140.082116 1.000924 " stroke="#545454" stroke-width="2" stroke-opacity="1" stroke-miterlimit="4"/><path stroke-linecap="round" transform="matrix(-0.6735, -0.329997, 0.329997, -0.6735, 245.520324, 234.948501)" fill="none" stroke-linejoin="miter" d="M 1.001064 0.99902 L 108.091233 0.999669 " stroke="#545454" stroke-width="2" stroke-opacity="1" stroke-miterlimit="4"/><path stroke-linecap="round" transform="matrix(-0.517085, -0.543253, 0.543253, -0.517085, 258.297468, 230.509746)" fill="none" stroke-linejoin="miter" d="M 0.999648 1.000738 L 79.449727 0.998753 " stroke="#545454" stroke-width="2" stroke-opacity="1" stroke-miterlimit="4"/><path stroke-linecap="round" transform="matrix(-0.684011, 0.307618, -0.307618, -0.684011, 111.003806, 210.515377)" fill="none" stroke-linejoin="miter" d="M 1.001456 0.998254 L 64.550041 1.00086 " stroke="#545454" stroke-width="2" stroke-opacity="1" stroke-miterlimit="4"/><path stroke-linecap="round" transform="matrix(-0.684011, 0.307618, -0.307618, -0.684011, 98.476376, 188.652643)" fill="none" stroke-linejoin="miter" d="M 1.001051 0.998872 L 64.549637 1.001479 " stroke="#545454" stroke-width="2" stroke-opacity="1" stroke-miterlimit="4"/><path stroke-linecap="round" transform="matrix(0.045319, 0.748629, -0.748629, 0.045319, 48.458205, 115.241505)" fill="none" stroke-linejoin="miter" d="M 0.999525 1.001291 L 123.024692 0.999699 " stroke="#545454" stroke-width="2" stroke-opacity="1" stroke-miterlimit="4"/><path stroke-linecap="round" transform="matrix(0.171259, -0.730185, 0.730185, 0.171259, 66.989511, 230.7289)" fill="none" stroke-linejoin="miter" d="M 0.997432 1.00015 L 87.929219 0.998553 " stroke="#545454" stroke-width="2" stroke-opacity="1" stroke-miterlimit="4"/><path stroke-linecap="round" transform="matrix(0.00109692, -0.749999, 0.749999, 0.00109692, 97.726647, 274.519348)" fill="none" stroke-linejoin="miter" d="M 1.001216 0.998424 L 114.178428 0.999562 " stroke="#545454" stroke-width="2" stroke-opacity="1" stroke-miterlimit="4"/><path stroke-linecap="round" transform="matrix(-0.401268, 0.633628, -0.633628, -0.401268, 192.935953, 79.487858)" fill="none" stroke-linejoin="miter" d="M 0.997429 0.999599 L 122.039185 0.999819 " stroke="#545454" stroke-width="2" stroke-opacity="1" stroke-miterlimit="4"/><path stroke-linecap="round" transform="matrix(-0.403587, 0.632153, -0.632153, -0.403587, 163.645671, 87.034432)" fill="none" stroke-linejoin="miter" d="M 0.998962 1.001543 L 124.608691 1.000656 " stroke="#545454" stroke-width="2" stroke-opacity="1" stroke-miterlimit="4"/><path stroke-linecap="round" transform="matrix(-0.375, 0.649519, -0.649519, -0.375, 130.481394, 93.320648)" fill="none" stroke-linejoin="miter" d="M 0.998259 1.000764 L 123.419172 0.998317 " stroke="#545454" stroke-width="2" stroke-opacity="1" stroke-miterlimit="4"/><path stroke-linecap="round" transform="matrix(-0.277582, -0.696741, 0.696741, -0.277582, 111.628269, 166.305503)" fill="none" stroke-linejoin="miter" d="M 0.999218 0.998895 L 87.770285 0.999134 " stroke="#545454" stroke-width="2" stroke-opacity="1" stroke-miterlimit="4"/><path stroke-linecap="round" transform="matrix(-0.169526, -0.730589, 0.730589, -0.169526, 142.613124, 157.167294)" fill="none" stroke-linejoin="miter" d="M 1.001539 1.002538 L 85.33017 1.001161 " stroke="#545454" stroke-width="2" stroke-opacity="1" stroke-miterlimit="4"/><path stroke-linecap="round" transform="matrix(-0.291856, -0.690884, 0.690884, -0.291856, 187.210202, 145.066558)" fill="none" stroke-linejoin="miter" d="M 1.00212 1.001106 L 82.409773 0.997577 " stroke="#545454" stroke-width="2" stroke-opacity="1" stroke-miterlimit="4"/><path stroke-linecap="round" transform="matrix(-0.0800318, -0.745718, 0.745718, -0.0800318, 202.971438, 166.041757)" fill="none" stroke-linejoin="miter" d="M 1.001601 0.999629 L 116.049058 1.000201 " stroke="#545454" stroke-width="2" stroke-opacity="1" stroke-miterlimit="4"/><path stroke-linecap="round" transform="matrix(-0.671243, 0.334563, -0.334563, -0.671243, 245.884882, 145.790791)" fill="none" stroke-linejoin="miter" d="M 0.999616 1.001277 L 61.312944 0.999634 " stroke="#545454" stroke-width="2" stroke-opacity="1" stroke-miterlimit="4"/><path stroke-linecap="round" transform="matrix(0.50216, -0.557078, 0.557078, 0.50216, 258.288854, 165.463158)" fill="none" stroke-linejoin="miter" d="M 0.997714 1.00128 L 165.646712 1.000563 " stroke="#545454" stroke-width="2" stroke-opacity="1" stroke-miterlimit="4"/><g clip-path="url(#2f614174f5)"><g clip-path="url(#ab9ba54c40)"><g clip-path="url(#c8cba247fd)"><path fill="#a3a3a3" d="M 214.515625 249.292969 L 248.457031 234.269531 L 263.078125 267.308594 L 229.136719 282.332031 Z M 214.515625 249.292969 " fill-opacity="1" fill-rule="nonzero"/></g></g></g><g clip-path="url(#838cae49fa)"><g clip-path="url(#0b22a9dd3e)"><g clip-path="url(#4549c3fe2b)"><g clip-path="url(#ce529c7a78)"><path stroke-linecap="butt" transform="matrix(0.685817, -0.303569, 0.303569, 0.685817, 214.513716, 249.294857)" fill="none" stroke-linejoin="miter" d="M 24.734459 -0.00156619 C 11.074868 0.00106192 0.00164091 10.785739 -0.00103533 24.08415 C -0.00105708 37.389431 11.072974 48.169251 24.73522 48.173494 C 38.394812 48.170866 49.468039 37.386189 49.470715 24.087778 C 49.470737 10.782496 38.391943 0.000568327 24.734459 -0.00156619 Z M 24.734459 -0.00156619 " stroke="#000000" stroke-width="2" stroke-opacity="1" stroke-miterlimit="4"/></g></g></g></g><g clip-path="url(#d3fc020d97)"><g clip-path="url(#6f395de40e)"><g clip-path="url(#8f0a0519aa)"><path fill="#a3a3a3" d="M 119.066406 274.65625 L 153.011719 259.632812 L 167.632812 292.671875 L 133.691406 307.695312 Z M 119.066406 274.65625 " fill-opacity="1" fill-rule="nonzero"/></g></g></g><g clip-path="url(#04db85d02b)"><g clip-path="url(#5e01208b59)"><g clip-path="url(#4d2b3d5b2b)"><g clip-path="url(#f4f99c001c)"><path stroke-linecap="butt" transform="matrix(0.685817, -0.303569, 0.303569, 0.685817, 119.067997, 274.656954)" fill="none" stroke-linejoin="miter" d="M 24.734315 0.0000971357 C 11.074723 0.00272524 -0.0011578 10.780531 -0.00117955 24.085813 C 0.000906827 37.386332 11.07283 48.170915 24.737184 48.170395 C 38.394668 48.172529 49.467894 37.387852 49.465808 24.087333 C 49.470592 10.78416 38.393907 -0.00253097 24.734315 0.0000971357 Z M 24.734315 0.0000971357 " stroke="#000000" stroke-width="2" stroke-opacity="1" stroke-miterlimit="4"/></g></g></g></g><g clip-path="url(#071dfcfd49)"><g clip-path="url(#863f67f25b)"><path fill="#000000" d="M 139.601562 276.90625 L 153.125 276.90625 L 153.125 290.429688 L 139.601562 290.429688 Z M 139.601562 276.90625 " fill-opacity="1" fill-rule="nonzero"/></g></g><g clip-path="url(#fe49a205d6)"><g clip-path="url(#ba53b8e41d)"><path stroke-linecap="butt" transform="matrix(0.75, 0, 0, 0.75, 139.600851, 276.90464)" fill="none" stroke-linejoin="miter" d="M 9.016575 0.00214638 C 4.037408 0.00214638 0.00094929 4.038605 0.00094929 9.017772 C 0.00094929 13.996939 4.037408 18.033398 9.016575 18.033398 C 13.995742 18.033398 18.0322 13.996939 18.0322 9.017772 C 18.0322 4.038605 13.995742 0.00214638 9.016575 0.00214638 Z M 9.016575 0.00214638 " stroke="#000000" stroke-width="2" stroke-opacity="1" stroke-miterlimit="4"/></g></g><g clip-path="url(#152cf672d5)"><g clip-path="url(#315032a62d)"><path fill="#000000" d="M 235.550781 251.542969 L 249.074219 251.542969 L 249.074219 265.070312 L 235.550781 265.070312 Z M 235.550781 251.542969 " fill-opacity="1" fill-rule="nonzero"/></g></g><g clip-path="url(#c3ee13da92)"><g clip-path="url(#37d69e6f9b)"><path stroke-linecap="butt" transform="matrix(0.75, 0, 0, 0.75, 235.549883, 251.542541)" fill="none" stroke-linejoin="miter" d="M 9.016824 0.000570224 C 4.037657 0.000570224 0.00119816 4.037029 0.00119816 9.016196 C 0.00119816 13.995363 4.037657 18.031821 9.016824 18.031821 C 13.995991 18.031821 18.032449 13.995363 18.032449 9.016196 C 18.032449 4.037029 13.995991 0.000570224 9.016824 0.000570224 Z M 9.016824 0.000570224 " stroke="#000000" stroke-width="2" stroke-opacity="1" stroke-miterlimit="4"/></g></g><path stroke-linecap="round" transform="matrix(0.36575, -0.654773, 0.654773, 0.36575, 65.203894, 144.405312)" fill="none" stroke-linejoin="miter" d="M 0.99781 0.998535 L 60.579282 1.000153 " stroke="#545454" stroke-width="2" stroke-opacity="1" stroke-miterlimit="4"/><path stroke-linecap="round" transform="matrix(0, 0.75, -0.75, 0, 246.605057, 145.124126)" fill="none" stroke-linejoin="miter" d="M 1.001165 0.999451 L 45.480334 0.999451 " stroke="#545454" stroke-width="2" stroke-opacity="1" stroke-miterlimit="4"/></svg>