<svg xmlns="http://www.w3.org/2000/svg" xmlns:xlink="http://www.w3.org/1999/xlink" width="500" zoomAndPan="magnify" viewBox="0 0 375 374.999991" height="500" preserveAspectRatio="xMidYMid meet" version="1.0"><defs><clipPath id="7417bda6e4"><path d="M 202.21875 225.871094 L 222.347656 225.871094 L 222.347656 246 L 202.21875 246 Z M 202.21875 225.871094 " clip-rule="nonzero"/></clipPath><clipPath id="432a1eacf9"><path d="M 212.285156 225.871094 C 206.726562 225.871094 202.21875 230.375 202.21875 235.933594 C 202.21875 241.492188 206.726562 246 212.285156 246 C 217.84375 246 222.347656 241.492188 222.347656 235.933594 C 222.347656 230.375 217.84375 225.871094 212.285156 225.871094 Z M 212.285156 225.871094 " clip-rule="nonzero"/></clipPath><clipPath id="1d1d5e1e49"><path d="M 113.011719 226.621094 L 133.144531 226.621094 L 133.144531 246.75 L 113.011719 246.75 Z M 113.011719 226.621094 " clip-rule="nonzero"/></clipPath><clipPath id="eaedce2902"><path d="M 123.078125 226.621094 C 117.519531 226.621094 113.011719 231.125 113.011719 236.683594 C 113.011719 242.242188 117.519531 246.75 123.078125 246.75 C 128.636719 246.75 133.144531 242.242188 133.144531 236.683594 C 133.144531 231.125 128.636719 226.621094 123.078125 226.621094 Z M 123.078125 226.621094 " clip-rule="nonzero"/></clipPath></defs><path stroke-linecap="butt" transform="matrix(0.517616, 0.542747, -0.542747, 0.517616, 64.622746, 175.52624)" fill="none" stroke-linejoin="miter" d="M -0.00258026 1.000993 L 91.807082 0.998573 " stroke="#000000" stroke-width="2" stroke-opacity="1" stroke-miterlimit="4"/><path stroke-linecap="butt" transform="matrix(0.293181, -0.690322, 0.690322, 0.293181, 162.889007, 224.827617)" fill="none" stroke-linejoin="miter" d="M 0.00201224 0.499446 L 71.101419 0.497619 " stroke="#ffde59" stroke-width="1" stroke-opacity="1" stroke-miterlimit="4"/><path stroke-linecap="butt" transform="matrix(0.293181, -0.690322, 0.690322, 0.293181, 141.69833, 225.573794)" fill="none" stroke-linejoin="miter" d="M 0.00173359 0.498507 L 71.103177 0.501474 " stroke="#ffde59" stroke-width="1" stroke-opacity="1" stroke-miterlimit="4"/><path stroke-linecap="butt" transform="matrix(0.293181, -0.690322, 0.690322, 0.293181, 121.742128, 226.160172)" fill="none" stroke-linejoin="miter" d="M -0.00295211 0.499296 L 71.103285 0.500228 " stroke="#ffde59" stroke-width="1" stroke-opacity="1" stroke-miterlimit="4"/><path stroke-linecap="butt" transform="matrix(0.293181, -0.690322, 0.690322, 0.293181, 152.466234, 226.306742)" fill="none" stroke-linejoin="miter" d="M 0.000830355 0.501247 L 71.100237 0.499421 " stroke="#ffde59" stroke-width="1" stroke-opacity="1" stroke-miterlimit="4"/><path stroke-linecap="butt" transform="matrix(0.293181, -0.690322, 0.690322, 0.293181, 131.275558, 225.427221)" fill="none" stroke-linejoin="miter" d="M -0.00030428 0.500672 L 71.099103 0.498845 " stroke="#ffde59" stroke-width="1" stroke-opacity="1" stroke-miterlimit="4"/><path stroke-linecap="butt" transform="matrix(0.749985, 0.00474298, -0.00474298, 0.749985, 111.683332, 224.373369)" fill="none" stroke-linejoin="miter" d="M 0.001478 1.002185 L 157.322342 1.002084 " stroke="#000000" stroke-width="2" stroke-opacity="1" stroke-miterlimit="4"/><path stroke-linecap="butt" transform="matrix(0.75, 0, 0, 0.75, 64.081378, 175.290648)" fill="none" stroke-linejoin="miter" d="M 0.000871144 0.997885 L 160.000882 0.997885 " stroke="#000000" stroke-width="2" stroke-opacity="1" stroke-miterlimit="4"/><path stroke-linecap="butt" transform="matrix(0.417266, -0.623209, 0.623209, 0.417266, 229.044145, 225.449296)" fill="none" stroke-linejoin="miter" d="M -0.000236375 1.001145 L 119.524909 1.003078 " stroke="#000000" stroke-width="2" stroke-opacity="1" stroke-miterlimit="4"/><path stroke-linecap="butt" transform="matrix(0.75, -0.000000000000000465, 0.000000000000000465, 0.75, 279.542681, 149.880473)" fill="none" stroke-linejoin="miter" d="M 0.000383209 1.997912 L 42.557678 1.997912 " stroke="#000000" stroke-width="4" stroke-opacity="1" stroke-miterlimit="4"/><g clip-path="url(#7417bda6e4)"><g clip-path="url(#432a1eacf9)"><path fill="#000000" d="M 202.21875 225.871094 L 222.347656 225.871094 L 222.347656 246 L 202.21875 246 Z M 202.21875 225.871094 " fill-opacity="1" fill-rule="nonzero"/></g></g><g clip-path="url(#1d1d5e1e49)"><g clip-path="url(#eaedce2902)"><path fill="#000000" d="M 113.011719 226.621094 L 133.144531 226.621094 L 133.144531 246.75 L 113.011719 246.75 Z M 113.011719 226.621094 " fill-opacity="1" fill-rule="nonzero"/></g></g></svg>