<svg xmlns="http://www.w3.org/2000/svg" xmlns:xlink="http://www.w3.org/1999/xlink" width="500" zoomAndPan="magnify" viewBox="0 0 375 374.999991" height="500" preserveAspectRatio="xMidYMid meet" version="1.0"><defs><g/></defs><g fill="#81b29a" fill-opacity="1"><g transform="translate(68.540494, 213.374986)"><g><path d="M 80.734375 -52.820312 L 80.875 -93.1875 L 28.628906 -93.1875 C 0 -93.1875 -4.4375 -55.109375 21.613281 -47.09375 C -5.152344 -39.078125 -3.722656 -0.144531 28.628906 -0.144531 L 80.734375 -0.144531 L 80.875 -40.796875 C 73.71875 -40.796875 48.527344 -42.226562 48.8125 -20.46875 C 48.8125 -13.167969 51.820312 -8.445312 56.113281 -5.441406 L 55.398438 -3.863281 C 45.234375 -6.15625 38.792969 -16.746094 38.933594 -26.910156 C 39.222656 -38.792969 49.816406 -45.378906 61.695312 -45.664062 L 61.695312 -48.527344 C 47.09375 -48.957031 38.648438 -60.980469 39.363281 -72 C 39.792969 -80.304688 45.949219 -87.890625 55.253906 -89.464844 L 55.96875 -87.890625 C 51.675781 -84.886719 48.667969 -80.160156 48.8125 -72.859375 C 49.097656 -48.527344 80.734375 -52.820312 80.734375 -52.820312 Z M 80.734375 -52.820312 "/></g></g></g><g fill="#63747a" fill-opacity="1"><g transform="translate(152.282675, 192.030529)"><g><path d="M 6.886719 0 L 22.472656 0 L 22.472656 -13.953125 C 22.472656 -20.296875 18.664062 -23.558594 12.324219 -23.558594 L 2.753906 -23.558594 L 2.71875 -14.027344 C 2.71875 -14.027344 11.164062 -13.011719 11.273438 -18.738281 C 11.273438 -20.078125 10.835938 -21.058594 10.148438 -21.746094 L 10.402344 -22.109375 C 12.25 -21.128906 13.445312 -19.355469 13.375 -16.308594 L 13.375 -12.867188 L 7.71875 -12.867188 C -1.558594 -12.867188 -2.175781 0 6.886719 0 Z M 13.445312 -11.816406 L 13.445312 -5.472656 C 14.425781 -5.292969 15.148438 -4.457031 15.148438 -3.441406 C 15.148438 -2.320312 14.242188 -1.414062 13.121094 -1.414062 C 10.835938 -1.414062 9.859375 -4.894531 9.894531 -6.597656 C 9.929688 -8.988281 11.378906 -11.019531 13.445312 -11.816406 Z M 13.445312 -11.816406 "/></g></g></g><g fill="#63747a" fill-opacity="1"><g transform="translate(175.841507, 192.030529)"><g><path d="M 20.441406 -13.375 L 20.476562 -23.59375 L 7.25 -23.59375 C 0 -23.59375 -1.125 -13.953125 5.472656 -11.925781 C -1.304688 -9.894531 -0.941406 -0.0351562 7.25 -0.0351562 L 20.441406 -0.0351562 L 20.476562 -10.328125 C 18.664062 -10.328125 12.285156 -10.691406 12.359375 -5.183594 C 12.359375 -3.335938 13.121094 -2.136719 14.207031 -1.378906 L 14.027344 -0.980469 C 11.453125 -1.558594 9.820312 -4.242188 9.859375 -6.8125 C 9.929688 -9.820312 12.613281 -11.488281 15.621094 -11.5625 L 15.621094 -12.285156 C 11.925781 -12.394531 9.785156 -15.441406 9.96875 -18.230469 C 10.074219 -20.332031 11.632812 -22.253906 13.992188 -22.652344 L 14.171875 -22.253906 C 13.085938 -21.492188 12.324219 -20.296875 12.359375 -18.449219 C 12.433594 -12.285156 20.441406 -13.375 20.441406 -13.375 Z M 20.441406 -13.375 "/></g></g></g><g fill="#63747a" fill-opacity="1"><g transform="translate(197.044441, 192.030529)"><g><path d="M 1.195312 -23.558594 L 1.160156 -12.792969 C 1.160156 -12.792969 8.046875 -11.886719 9.570312 -16.308594 L 10.003906 -16.308594 C 11.417969 -11.960938 0.6875 -11.089844 0.6875 -4.132812 L 0.6875 0 L 9.714844 0 L 9.714844 -3.949219 C 9.605469 -5.945312 10.113281 -7.539062 11.128906 -8.664062 L 11.488281 -8.515625 C 11.234375 -4.894531 13.882812 0 18.484375 0 L 22.144531 0 L 22.179688 -10.621094 C 22.179688 -10.621094 15.332031 -10.945312 13.882812 -6.453125 L 13.484375 -6.453125 C 10.511719 -12.179688 22.289062 -13.808594 22.289062 -19.066406 L 22.289062 -23.558594 L 13.085938 -23.558594 L 13.085938 -19.464844 C 13.085938 -18.375 12.722656 -17.179688 12.140625 -16.09375 L 11.707031 -16.203125 C 11.816406 -18.957031 10.113281 -22.144531 6.996094 -23.234375 C 5.363281 -23.8125 2.9375 -23.558594 1.195312 -23.558594 Z M 1.195312 -23.558594 "/></g></g></g><g fill="#63747a" fill-opacity="1"><g transform="translate(220.313305, 192.030529)"><g><path d="M 8.769531 -23.59375 C 4.929688 -23.59375 0.6875 -23.050781 0.472656 -18.160156 C 0.109375 -10.621094 11.960938 -12.140625 12.359375 -4.855469 C 12.25 -1.632812 10.039062 -1.015625 7.25 -0.941406 L 7.140625 -1.339844 C 8.445312 -2.066406 9.316406 -3.082031 9.277344 -5.183594 C 9.207031 -11.34375 1.015625 -10.257812 1.015625 -10.257812 L 1.050781 -0.0351562 L 14.644531 -0.0351562 C 18.917969 -0.0351562 20.695312 -2.683594 21.128906 -5.292969 C 21.636719 -8.335938 20.078125 -10.582031 16.746094 -12.433594 C 14.28125 -13.808594 9.714844 -15.546875 9.820312 -18.992188 C 9.894531 -22 12.792969 -22.941406 15.402344 -22.796875 L 15.476562 -22.398438 C 14.207031 -21.710938 13.230469 -20.804688 13.265625 -18.738281 C 13.339844 -12.902344 21.09375 -13.953125 21.09375 -13.953125 L 21.058594 -23.59375 Z M 8.769531 -23.59375 "/></g></g></g><g fill="#63747a" fill-opacity="1"><g transform="translate(242.096141, 192.030529)"><g><path d="M 1.015625 -23.558594 L 1.050781 0.0351562 L 9.714844 0.0351562 L 9.714844 -8.191406 C 9.714844 -11.34375 14.75 -11.308594 14.75 -8.117188 L 14.75 0.0351562 L 23.414062 0.0351562 L 23.414062 -23.558594 L 14.714844 -23.558594 L 14.75 -14.28125 C 12.683594 -14.894531 10.257812 -13.410156 10.183594 -10.910156 L 9.714844 -10.910156 C 9.714844 -15.113281 9.675781 -19.355469 9.675781 -23.558594 Z M 1.015625 -23.558594 "/></g></g></g><g fill="#63747a" fill-opacity="1"><g transform="translate(266.597324, 192.030529)"><g><path d="M 12.613281 -24.101562 C 5.800781 -24.101562 0.289062 -18.59375 0.289062 -11.816406 C 0.289062 -5.039062 5.800781 0.507812 12.613281 0.507812 C 19.390625 0.507812 24.898438 -5.039062 24.898438 -11.816406 C 24.898438 -18.59375 19.390625 -24.101562 12.613281 -24.101562 Z M 11.996094 -13.808594 C 13.445312 -13.808594 14.644531 -12.613281 14.644531 -11.164062 C 14.644531 -9.675781 13.445312 -8.515625 11.996094 -8.515625 C 3.734375 -8.515625 2.9375 -20.585938 9.894531 -22.726562 L 9.894531 -12.722656 C 10.367188 -13.410156 11.164062 -13.808594 11.996094 -13.808594 Z M 11.996094 -13.808594 "/></g></g></g><g fill="#63747a" fill-opacity="1"><g transform="translate(291.859634, 192.030529)"><g><path d="M 16.308594 -23.59375 L 1.085938 -23.59375 L 1.085938 -0.0351562 L 10.039062 -0.0351562 L 10.039062 -7.863281 L 16.417969 -7.863281 C 24.210938 -7.863281 23.921875 -23.59375 16.308594 -23.59375 Z M 10.003906 -8.953125 L 10.003906 -18.59375 C 8.84375 -18.59375 7.902344 -19.5 7.902344 -20.660156 C 7.902344 -22.832031 10.472656 -23.269531 11.851562 -22.144531 C 14.75 -19.824219 14.714844 -9.097656 10.003906 -8.953125 Z M 10.003906 -8.953125 "/></g></g></g></svg>